<?xml version="1.0" encoding="UTF-8"?>
<svg width="12484px" height="15550px" viewBox="0 0 12484 15550" version="1.1" xmlns="http://www.w3.org/2000/svg" xmlns:xlink="http://www.w3.org/1999/xlink">
    <!-- Generator: Sketch 54.1 (76490) - https://sketchapp.com -->
    <title>Artboard</title>
    <desc>Created with Sketch.</desc>
    <g stroke="none" stroke-width="1" fill="none" fill-rule="evenodd">
        <path d="M1646.42641,2106.41204 L1651.10092,4447.86737 L1653.57942,7419.62269 L1656.33851,7715.87192 L1657.35418,7773.773 L1657.35418,7860.54782 L1655.24237,8000.5791 L1653.57942,8137.50662 L1656.33851,8304.38472 L1656.33851,8499.87723 L1657.35418,8709.3773 L1659.14318,8878.96211 L1659.14318,9171.24947 L1661.55404,9628.87305 L1665.45352,10112.8493 L1668.50862,10413.047 L1668.50862,10593.4815 L1667.50862,10848.4467 L1668.50862,11468.3806 L1665.45352,11970.9349 L1665.45352,12325.3422 L1665.45352,13018.4899 L1667.50862,13512.991 L1720.38199,13512.991 L1876.08113,13521.1706 L1922.82912,13525.1847 L1981.79637,13532.6771 C2028.75454,13540.5721 2063.64305,13546.5611 2086.46188,13550.6439 C2109.28071,13554.7268 2148.62993,13562.9561 2204.50954,13575.3319 L2248.69529,13586.3609 C2263.85529,13517.4306 2273.98079,13471.6108 2279.07181,13448.9017 C2286.70833,13414.8379 2296.06266,13361.3882 2301.93709,13332.8546 C2307.81152,13304.321 2319.8419,13246.5217 2327.90109,13203.9146 C2335.96027,13161.3076 2357.79982,13071.4476 2363.31039,13038.4376 C2368.82097,13005.4276 2386.11099,12915.9334 2390.74129,12891.377 C2395.3716,12866.8205 2415.57678,12767.2305 2423.09168,12731.5599 C2428.10161,12707.7795 2438.77349,12655.3856 2455.1073,12574.3782 C2471.77536,12492.258 2482.44166,12440.1341 2487.10623,12418.0065 C2491.77079,12395.8788 2500.01529,12351.0502 2511.83973,12283.5206 L2526.52989,12211.1879 L2543.76547,12127.2222 L2559.9315,12034.7408 L2575.99675,11952.7748 L2592.08592,11872.3538 L2604.88728,11811.3352 L2623.57408,11710.6968 L2640.56464,11606.0052 L2660.80235,11491.5506 L2676.37394,11401.7232 L2692.16707,11300.5848 L2714.57146,11172.5833 L2735.83786,11047.4538 L2753.75205,10934.9631 L2771.80738,10829.0157 L2782.55289,10752.6288 L2796.94074,10656.0839 L2812.96569,10551.2965 L2831.88106,10424.9776 L2849.1235,10282.2563 L2868.18646,10138.461 L2882.40157,10003.6004 L2894.1386,9900.21583 L2907.67954,9782.32209 L2920.03793,9644.38 L2933.87659,9479.94303 L2949.34504,9284.74724 L2961.16425,9104.56054 L2965.30929,9014.928 L2969.56723,8849.57509 L2978.04615,8681.53403 L2983.76844,8489.77507 L2993.20411,8315.69817 L2994.36477,8179.94806 L2994.36477,8027.58265 L2991.85025,7880.94215 L2993.20411,7730.95994 L2991.85025,7718.45366 L2991.85025,7683.69004 L2989.95675,7582.14467 L2988.58637,7406.77745 L2983.76844,7225.43292 L2982.39148,7077.81249 L2974.50189,6909.37094 L2967.71834,6754.08172 L2961.16425,6621.20474 L2952.49039,6471.57281 L2939.89717,6303.62882 L2929.74753,6166.80919 L2913.27999,5973.26333 L2896.82533,5786.62478 L2885.29799,5677.21813 L2880.6448,5637.54049 L2874.20891,5537.92993 L2861.40184,5443.13124 L2856.8301,5384.73548 L2838.71787,5224.58763 L2824.7322,5118.62431 L2808.28516,5002.69791 L2784.45187,4846.2025 L2760.37077,4706.32815 L2735.83786,4543.93987 L2706.88589,4386.96097 L2685.46552,4251.92674 L2662.97734,4129.57125 L2632.1193,3959.0184 L2601.62545,3786.81718 L2568.08107,3622.21774 L2549.65658,3525.92153 L2523.97431,3394.75432 L2498.15138,3262.66667 L2468.59871,3118.73527 L2442.03945,2999.23921 L2410.39685,2848.60888 L2379.35249,2697.27274 L2360.50151,2620.45225 L2336.57129,2515.45568 L2301.93709,2353.66517 L2274.84347,2235.61219 L2238.72337,2074.01436 L2230.20759,2043.48857 L2157.05754,2059.23328 L2094.71416,2070.43767 L2021.28782,2081.81008 L1952.96607,2090.46435 L1892.8065,2097.48121 L1833.64322,2101.65441 L1731.96076,2105.7778 L1646.42641,2106.41204 Z" fill="#000000"></path>
    </g>
</svg>
