<?xml version="1.0" encoding="UTF-8"?>
<svg width="12484px" height="15550px" viewBox="0 0 12484 15550" version="1.1" xmlns="http://www.w3.org/2000/svg" xmlns:xlink="http://www.w3.org/1999/xlink">
    <!-- Generator: Sketch 54.1 (76490) - https://sketchapp.com -->
    <title>Artboard</title>
    <desc>Created with Sketch.</desc>
    <g stroke="none" stroke-width="1" fill="none" fill-rule="evenodd">
        <polygon fill="#000000" points="3696.32174 2014.07009 3667.06175 2146.03017 3636.8842 2303.48725 3591.32441 2520.71152 3564.32619 2643.49015 3530.3735 2840.00358 3499.90158 3011.81937 3471.38683 3170.24901 3439.67521 3342.95688 3411.40739 3490.0759 3378.34364 3662.35773 3343.94141 3849.60127 3310.18887 4037.47485 3259.33448 4325.67108 3217.02181 4597.16577 3186.42833 4789.02917 3163.3168 4936.33731 3145.48923 5058.5173 3129.82331 5186.44925 3106.96304 5365.63179 3081.95932 5597.83384 3061.54385 5845.45648 3044.96425 6071.84057 3030.46171 6285.89361 3020.83377 6448.82146 3013.30802 6603.5459 3006.33543 6739.35556 3002.12068 6880.07519 2996.90881 7036.87168 2995.53726 7171.15309 2995.53726 7273.94197 2994.30709 7397.73122 2993.53726 7515.02384 2992.99825 7671.88703 2992.99825 7836.32271 2996.90881 8051.83497 3000.28491 8172.27379 3002.12068 8280.44619 3007.99271 8473.93621 3013.30802 8678.45692 3028.90912 9032.49266 3044.96425 9269.88768 3076.07069 9626.41185 3098.51104 9850.52402 3127.54025 10109.1649 3152.87937 10317.9365 3186.42833 10560.3025 3214.10179 10732.3695 3247.70264 10945.5804 3284.93789 11161.448 3331.98278 11439.1982 3367.40633 11644.2952 3403.73555 11858.4903 3443.77923 12074.3871 3488.44101 12313.5043 3525.11488 12508.3803 3591.32441 12843.7727 3649.04115 13112.463 3698.0357 13332.0809 3745.82694 13538.4069 3787.61329 13528.5576 3830.57675 13519.6103 3868.72368 13511.4845 3907.30736 13504.437 3945.63465 13498.0082 3988.35035 13492.8087 4040.62676 13486.1714 4096.84663 13480.2033 4155.98602 13477.0966 4233.6254 13474.6304 4316.77528 13472.799 4391.35064 13474.6304 4465.70933 13478.8049 4540.57873 13486.1714 4639.79892 13500.6567 4722.89809 13515.0904 4773.7881 13526.8349 4830.31444 13542.5777 4861.00041 13550.4273 4887.71172 13428.7714 4918.03193 13282.8391 4946.85939 13129.204 4983.5756 12951.9257 5018.03139 12784.3973 5057.1412 12592.9801 5099.30662 12391.0478 5131.69772 12220.1391 5168.55756 12023.3089 5197.15906 11859.9846 5235.45395 11659.8217 5267.93158 11468.0426 5303.78919 11261.2923 5337.94991 11062.0617 5372.02172 10873.9877 5405.47927 10656.4394 5430.6724 10497.4062 5456.33402 10309.0768 5481.47016 10040.7627 5489.53022 9940.46368 5494.26964 9900.04134 5512.58339 9731.19638 5519.71516 9644.9594 5537.53389 9447.78443 5552.76645 9210.15012 5565.35471 8984.24088 5580.42679 8752.51646 5588.19673 8575.21731 5590.65958 8464.35595 5593.55337 8294.23517 5597.83253 8058.05545 5599.83253 7896.17783 5599.83253 7718.87253 5595.83253 7614.9708 5585.53205 7359.79094 5580.42679 7149.73048 5574.28405 7013.22337 5562.221 6796.94208 5541.69662 6489.13189 5519.71516 6173.4739 5494.26964 5838.52828 5459.52017 5484.54418 5425.56566 5186.44925 5383.07295 4880.63315 5323.80605 4517.41546 5264.99731 4182.97647 5221.68037 3932.73765 5160.70933 3610.50189 5091.38582 3246.65644 4988.37559 2765.98875 4918.03193 2436.5132 4853.06162 2146.03017 4827.05413 2029.86871 4749.63555 2045.80895 4652.57298 2062.92119 4579.60805 2073.71845 4483.94379 2083.12719 4388.08564 2089.39695 4324.93994 2090.39695 4147.01178 2089.39695 4034.98368 2080.10887 3907.30736 2062.92119 3844.9397 2051.05694 3773.85303 2036.02102 3722.03281 2021.83972"></polygon>
    </g>
</svg>
