<?xml version="1.0" encoding="UTF-8"?>
<svg width="12484px" height="15550px" viewBox="0 0 12484 15550" version="1.1" xmlns="http://www.w3.org/2000/svg" xmlns:xlink="http://www.w3.org/1999/xlink">
    <!-- Generator: Sketch 54.1 (76490) - https://sketchapp.com -->
    <title>Artboard</title>
    <desc>Created with Sketch.</desc>
    <g stroke="none" stroke-width="1" fill="none" fill-rule="evenodd">
        <polygon fill="#000000" points="6315.34499 1995.17533 6250.24292 2326.91954 6185.95702 2668.64545 6111.3144 3072.22764 6030.3168 3487.58241 5932.97812 4063.11053 5853.48607 4517.40574 5800.52221 4872.31724 5746.49094 5270.44466 5705.78211 5646.91372 5660.23994 6093.72947 5630.05032 6603.43854 5614.53276 6926.3763 5605.77927 7230.68554 5600.7125 7581.09576 5602.77927 7846.36483 5606.77927 8212.29621 5619.73191 8689.15428 5641.17976 9096.36773 5678.51112 9583.97241 5705.78211 9864.46121 5737.13993 10104.8742 5776.83272 10363.5095 5832.76131 10783.7584 5894.45016 11158.2856 5950.68172 11482.106 6036.37282 11964.1693 6111.3144 12335.6307 6235.78393 12944.1641 6347.58588 13433.8221 6372.59402 13518.4127 6403.11212 13509.7668 6463.11373 13495.0257 6514.44033 13484.0971 6567.0421 13474.0489 6630.79816 13466.3443 6689.15538 13459.829 6733.05904 13456.2926 6785.85344 13452.4194 6834.2897 13449.8925 6920.06505 13446.7552 6981.40392 13446.7552 7071.81927 13450.4194 7138.76239 13456.829 7214.705 13466.3443 7295.98787 13478.8352 7380.22486 13497.3838 7442.10783 13511.337 7466.83821 13517.0164 7494.92862 13375.5904 7565.27035 13032.1708 7654.21873 12605.9111 7725.58359 12230.4617 7801.24749 11827.6515 7867.67663 11475.0467 7927.34548 11123.713 7994.08552 10683.4865 8051.76986 10291.5403 8071.04729 10132.1216 8090.20927 9926.55054 8120.66569 9649.45561 8145.96064 9326.47412 8163.95472 9018.80757 8182.09696 8662.07639 8188.91964 8444.99281 8193.30205 8134.15539 8193.30205 7746.8691 8193.30205 7390.03318 8188.91964 7079.19219 8182.09696 6841.16225 8177.28494 6727.44318 8167.76129 6555.81014 8154.19667 6358.1904 8137.79151 6147.20343 8113.76462 5848.20642 8093.3494 5698.72062 8071.04729 5472.87803 8048.1061 5246.29394 8028.69315 5083.9596 7994.08552 4836.33193 7958.08162 4614.72929 7917.40839 4372.16377 7876.73795 4128.21565 7815.96465 3774.37175 7766.95065 3507.68539 7701.57504 3167.7564 7649.52392 2908.68972 7603.57549 2674.34933 7551.85936 2434.63763 7487.57688 2151.15366 7456.7279 2006.7247 7404.3647 2019.26139 7338.53812 2030.80932 7281.6739 2040.03272 7216.04986 2048.67974 7152.90056 2055.6993 7063.66181 2062.07569 6973.04951 2068.32994 6873.83256 2068.32994 6769.2456 2064.03442 6649.05337 2055.6993 6545.88136 2042.49943 6442.69063 2022.86497 6353.40829 2003.84626"></polygon>
    </g>
</svg>
