<?xml version="1.0" encoding="UTF-8"?>
<svg width="12484px" height="15550px" viewBox="0 0 12484 15550" version="1.1" xmlns="http://www.w3.org/2000/svg" xmlns:xlink="http://www.w3.org/1999/xlink">
    <!-- Generator: Sketch 54.1 (76490) - https://sketchapp.com -->
    <title>Artboard</title>
    <desc>Created with Sketch.</desc>
    <g stroke="none" stroke-width="1" fill="none" fill-rule="evenodd">
        <polygon fill="#000000" points="8931.35194 1989.5035 8893.73327 2163.25365 8807.20439 2570.31734 8715.30392 3021.79488 8642.23878 3387.20544 8594.17079 3650.7745 8533.42981 3978.69228 8455.33544 4426.60718 8389.93613 4819.45155 8327.09546 5293.07955 8289.87667 5594.95929 8265.9446 5854.23825 8236.36071 6215.5173 8218.5138 6623.74089 8211.01544 6789.67144 8206.67847 7130.2448 8202.9649 7427.47477 8195.96287 7725.45455 8195.96287 7782.23111 8202.9649 8062.48655 8211.01544 8375.8731 8223.86975 8693.38827 8248.69541 9117.25319 8285.37577 9597.14146 8320.13408 9917.61926 8367.10522 10289.6655 8463.45047 10899.6966 8559.16976 11478.6542 8674.22561 12105.0732 8767.12495 12561.5855 8863.12953 13006.2324 8908.85776 13204.8726 8947.80354 13364.218 8982.63899 13496.8604 9024.90587 13485.2782 9073.36973 13472.7634 9118.40249 13463.6173 9162.56208 13455.0944 9218.17411 13445.8459 9279.29196 13436.3314 9326.48628 13431.4897 9371.36222 13428.239 9437.56593 13426.2742 9494.55965 13424.3192 9565.05397 13426.2742 9642.90789 13428.239 9702.64095 13431.4897 9765.82668 13440.0206 9820.53066 13445.8459 9872.56506 13455.0944 9940.51503 13467.066 10005.474 13483.2774 10056.4988 13496.8604 10087.378 13505.065 10110.0118 13389.7525 10147.6672 13210.0788 10214.5045 12877.1609 10271.6005 12571.7677 10330.7879 12283.1827 10398.8456 11932.9902 10460.5014 11592.4565 10512.7917 11308.8549 10559.7676 11057.4736 10601.2841 10783.2923 10651.0797 10450.9906 10684.5904 10165.3304 10711.4969 9909.5696 10739.5783 9567.87354 10759.1593 9324.48512 10775.6644 9013.51307 10787.7143 8744.16165 10795.4716 8479.15807 10802.2184 8194.99614 10806.4184 7919.32143 10806.4184 7643.29801 10802.2184 7442.99093 10791.6112 7159.09246 10787.7143 6901.1602 10772.5207 6623.74089 10764.2032 6464.91508 10747.7709 6297.73033 10728.7614 6024.27289 10711.4969 5807.67507 10687.8845 5609.15003 10665.5359 5377.92404 10625.5635 5038.23558 10589.6912 4790.00139 10550.7215 4551.43027 10493.6495 4171.88767 10437.3589 3853.90338 10393.4059 3604.17616 10352.1395 3397.02464 10318.6053 3211.48326 10273.6005 3005.90407 10240.7673 2846.54008 10184.3745 2597.13234 10138.2106 2369.58525 10068.9305 2060.57128 10054.4653 1995.4373 10005.474 2005.21763 9931.91036 2019.3415 9861.21624 2031.29872 9769.69992 2042.51985 9653.40773 2053.47131 9526.61513 2057.29838 9354.62066 2054.47131 9222.20465 2039.95391 9104.24712 2026.37383 9014.78726 2008.45313"></polygon>
    </g>
</svg>
