<?xml version="1.0" encoding="UTF-8"?>
<svg width="12463px" height="15538px" viewBox="0 0 12463 15538" version="1.1" xmlns="http://www.w3.org/2000/svg" xmlns:xlink="http://www.w3.org/1999/xlink">
    <!-- Generator: Sketch 54.1 (76490) - https://sketchapp.com -->
    <title>Artboard</title>
    <desc>Created with Sketch.</desc>
    <g stroke="none" stroke-width="1" fill="none" fill-rule="evenodd">
        <polygon fill="#000000" points="3023.31488 1993.58502 2876.63681 2689.61719 2776.60779 3180.32141 2718.72931 3491.72656 2635.57834 3955.909 2569.33481 4332.03912 2523.93784 4593.60205 2501.23758 4735.0603 2463.93713 4982.78528 2375.16196 5789.31903 2357.9821 6022.87494 2336.9904 6391.85956 2313.19043 6803.73901 2302.19186 7001.10382 2296.4772 7247.0589 2290.08792 7414.25153 2289.08792 7528.00452 2290.08792 7644.31323 2296.4772 7733.74738 2302.19186 7775.61035 2296.4772 7781.29938 2292.4772 7796.23077 2290.08792 7855.03461 2289.08792 8112.27417 2292.08792 8387.42413 2313.19043 8841.87744 2328.74374 9144.91559 2367.66388 9651.20825 2388.74219 9892.15686 2438.43896 10360.4532 2463.93713 10570.1709 2520.93784 10938.7544 2576.68542 11299.9005 2624.87341 11591.9099 2696.72327 11965.2822 2755.45975 12282.1061 2794.66809 12474.6373 2854.31549 12730.8264 2938.92767 13122.7534 3032.4491 13519.4854 3099.64453 13503.9371 3176.17487 13487.2654 3234.95112 13476.0495 3281.67478 13467.0312 3335.95456 13460.4106 3393.64034 13454.3854 3465.02062 13449.7235 3514.35524 13447.9921 3578.46878 13446.435 3641.38786 13447.9921 3742.49835 13451.1162 3858.28795 13463.1484 3959.98938 13478.8253 4042.54211 13494.4031 4115.35308 13514.2061 4136.37146 13519.4854 4160.02379 13411.4147 4203.46131 13206.1724 4280.66018 12844.3852 4335.68512 12580.2774 4394.54847 12299.2346 4445.63522 12037.9966 4494.97005 11766.5247 4546.97856 11494.6933 4593.1544 11231.6235 4624.70863 11074.7123 4670.06998 10812.5734 4725.03311 10459.482 4771.56194 10130.0891 4801.26726 9865.68621 4826.62374 9575.4583 4842.05541 9395.14909 4853.21091 9255.17932 4869.25451 8988.81058 4884.37081 8702.39858 4889.29188 8559.64395 4892.94263 8402.06592 4892.94263 8173.98727 4898.58181 7926.91764 4898.58181 7781.29938 4895.88257 7697.2697 4892.94263 7512.52544 4884.37081 7323.98226 4877.50661 7008.56547 4865.61542 6749.40491 4860.50101 6546.56784 4853.21091 6397.18279 4829.14404 6131.46732 4809.78203 5873.79878 4791.7421 5694.75151 4774.43989 5534.61118 4750.62581 5306.81502 4717.86702 5010.11913 4679.85865 4745.67048 4637.22535 4485.31323 4588.76916 4207.80612 4523.93213 3846.30617 4483.9507 3642.49104 4462.09967 3536.19049 4429.50343 3351.31595 4387.20322 3132.06146 4349.40097 2944.96751 4303.60579 2717.47128 4246.5486 2428.55573 4217.48164 2278.74972 4178.1551 2094.57074 4160.02379 2000.06175 4061.87479 2020.34402 3938.72586 2039.75763 3822.05705 2054.90769 3733.91304 2063.24277 3658.63497 2066.1836 3574.70612 2064.24277 3424.40595 2056.90769 3326.50915 2048.52147 3214.71174 2033.02427 3116.35544 2015.26548"></polygon>
    </g>
</svg>