<?xml version="1.0" encoding="UTF-8"?>
<svg width="12463px" height="15538px" viewBox="0 0 12463 15538" version="1.1" xmlns="http://www.w3.org/2000/svg" xmlns:xlink="http://www.w3.org/1999/xlink">
    <!-- Generator: Sketch 54.1 (76490) - https://sketchapp.com -->
    <title>Artboard</title>
    <desc>Created with Sketch.</desc>
    <g stroke="none" stroke-width="1" fill="none" fill-rule="evenodd">
        <polygon fill="#000000" points="5613.34982 1977.41358 5568.35262 2189.05095 5481.16915 2587.00961 5383.241 3095.28195 5285.64477 3626.04963 5219.51715 4003.34086 5174.44864 4263.31204 5144.30319 4443.92642 5098.17266 4726.17847 5061.63684 4956.75797 5042.65859 5089.62609 5017.95034 5304.49742 4997.30475 5515.55744 4987.1352 5615.68769 4956.7202 5966.77715 4936.82749 6253.69773 4914.2879 6685.1146 4907.45307 6885.69044 4903.17845 7033.87921 4899.17845 7331.24336 4898.17845 7573.66904 4898.17845 7718.56939 4898.17845 8084.62561 4903.17845 8270.55289 4907.45307 8466.4258 4912.2879 8625.84466 4923.94755 8862.58621 4947.15673 9296.50442 4970.88929 9584.66831 5003.31513 9888.24764 5035.33768 10178.9177 5072.23548 10470.3526 5093.34045 10628.3999 5106.77084 10788.2005 5125.98587 10935.5656 5165.06391 11195.4813 5196.30233 11377.7018 5248.18778 11653.4542 5291.36316 11897.9261 5374.46911 12282.0285 5441.02114 12601.4936 5527.30869 13023.1259 5598.2764 13337.0894 5638.40431 13519.4905 5683.45553 13509.9924 5746.64888 13497.5434 5811.89275 13483.2932 5892.11884 13467.2746 5976.71733 13459.2995 6054.28259 13451.1663 6156.73192 13446.605 6247.66936 13448.1062 6341.79636 13451.1663 6433.66926 13459.2995 6537.52896 13473.9019 6639.631 13495.8591 6701.60097 13512.7663 6745.47929 13523.8466 6779.50842 13366.1417 6810.12851 13208.2445 6846.01388 13025.9733 6887.87102 12820.8313 6983.03814 12369.4743 7066.13211 11937.6173 7147.49698 11481.9528 7217.49935 11115.6367 7293.66599 10663.8138 7339.64617 10400.9042 7355.7848 10263.7427 7370.85862 10064.2457 7390.59873 9865.81557 7408.03702 9700.99347 7428.0796 9499.366 7455.61015 9160.82083 7468.76338 8922.32424 7481.09613 8747.77162 7486.38923 8476.73117 7491.76637 8333.44664 7494.76637 8136.99145 7492.76637 8076.61636 7491.76637 7889.30526 7492.76637 7586.05682 7484.38923 7297.06981 7478.02756 7022.16059 7462.02495 6685.1146 7446.75394 6434.85236 7422.4033 6144.10349 7399.19003 5864.4969 7378.61314 5615.68769 7360.27241 5410.60279 7332.68209 5169.6112 7321.09424 5045.65315 7288.64499 4811.43756 7246.40054 4514.83039 7199.00089 4230.29168 7153.35171 3959.5442 7079.10173 3533.58373 7007.68636 3161.58352 6943.39869 2873.95038 6909.28135 2726.06823 6856.68951 2489.30868 6808.12851 2258.52822 6775.33224 2110.4079 6754.33689 1997.94362 6665.99971 2013.75308 6575.54014 2029.98444 6468.24427 2043.46227 6366.46227 2052.49324 6256.95432 2057.27327 6135.82301 2055.54228 6027.37541 2050.9023 5921.31158 2040.18275 5823.67882 2025.68409 5713.15269 2001.95907"></polygon>
    </g>
</svg>