<?xml version="1.0" encoding="UTF-8"?>
<svg width="12463px" height="15538px" viewBox="0 0 12463 15538" version="1.1" xmlns="http://www.w3.org/2000/svg" xmlns:xlink="http://www.w3.org/1999/xlink">
    <!-- Generator: Sketch 54.1 (76490) - https://sketchapp.com -->
    <title>Artboard</title>
    <desc>Created with Sketch.</desc>
    <g stroke="none" stroke-width="1" fill="none" fill-rule="evenodd">
        <polygon fill="#000000" points="8224.23297 1966.95928 8174.64328 2193.44227 8127.62923 2440.67366 8048.18095 2844.80978 7998.20708 3087.44803 7974.00913 3202.87914 7908.31491 3532.04485 7864.53695 3775.08569 7814.61729 4074.92051 7773.76486 4332.96435 7721.4947 4645.19607 7678.61345 4948.21862 7635.54883 5299.35499 7610.53643 5509.83589 7584.99827 5747.26463 7559.87175 5965.22681 7529.22708 6376.69841 7514.2239 6659.29956 7503.70106 6842.68457 7494.76637 7141.54597 7495.76637 7353.24478 7494.76637 7537.52556 7492.76637 7586.05682 7492.76637 7780.82445 7492.76637 8060.57822 7494.76637 8136.99145 7494.76637 8200.85302 7506.16037 8418.53681 7514.2239 8660.5752 7529.22708 8851.68262 7550.12018 9163.90235 7572.58537 9439.78601 7595.86105 9654.81208 7628.32204 9916.5755 7653.84288 10167.9411 7683.55073 10401.8882 7721.4947 10684.7385 7739.25105 10822.0576 7773.76486 11029.3743 7806.61305 11249.7536 7836.31179 11426.1044 7870.08445 11609.5268 7904.6653 11802.2923 7945.65114 12027.2425 8012.02174 12351.304 8072.70418 12670.7103 8123.58844 12915.4301 8182.23316 13180.0844 8239.70512 13428.3597 8259.11066 13514.1218 8385.67438 13488.2603 8511.24979 13467.8324 8621.06123 13458.5604 8715.54682 13452.0414 8813.66893 13452.0414 8932.33778 13458.5604 9039.76638 13472.5965 9151.80121 13492.0056 9257.37045 13514.1218 9353.64358 13539.8011 9409.79285 13283.5062 9476.27501 12966.5722 9552.15222 12637.1972 9638.62046 12237.5844 9706.69997 11918.5009 9769.8961 11586.1514 9825.62676 11272.2863 9895.44756 10860.4718 9955.04886 10489.1277 9988.43052 10271.765 10012.5523 9985.79811 10042.8259 9694.85894 10060.6643 9430.99038 10078.8679 9153.96612 10095.3989 8745.13066 10105.9547 8456.07552 10113.1844 8205.93506 10113.1844 7954.807 10113.1844 7683.58076 10109.5899 7399.15524 10099.4929 7082.11541 10086.8257 6751.66885 10066.2476 6426.13244 10049.9986 6180.17668 10036.7472 5977.32684 10008.6172 5740.39667 9982.79524 5472.44045 9955.04886 5207.11062 9926.77443 4967.20297 9886.97834 4690.79467 9847.79854 4441.75113 9795.22133 4119.67003 9737.4907 3800.90595 9701.21674 3603.56609 9657.11388 3396.94085 9613.61466 3180.11773 9562.10451 2919.89111 9524.07669 2736.43295 9476.27501 2507.81492 9420.24252 2255.83972 9360.87729 1978.32554 9261.54351 1996.37822 9189.3384 2007.22276 9065.92629 2021.45429 8952.63012 2028.10373 8840.42523 2031.75627 8703.1238 2028.10373 8558.44332 2017.70297 8456.75163 2007.22276 8336.89485 1991.27822"></polygon>
    </g>
</svg>