<?xml version="1.0" encoding="UTF-8"?>
<svg width="12485px" height="15583px" viewBox="0 0 12485 15583" version="1.1" xmlns="http://www.w3.org/2000/svg" xmlns:xlink="http://www.w3.org/1999/xlink">
    <!-- Generator: Sketch 54.1 (76490) - https://sketchapp.com -->
    <title>Artboard</title>
    <desc>Created with Sketch.</desc>
    <g stroke="none" stroke-width="1" fill="none" fill-rule="evenodd">
        <polygon fill="#000000" points="3107.18038 1993.75321 3029.89979 2324.93729 2948.10452 2700.10658 2877.94497 3019.38992 2785.61413 3466.39141 2682.93722 3986.06789 2633.65972 4255.7568 2599.39752 4448.51838 2564.67031 4651.01783 2518.43748 4948.69648 2491.77392 5126.7046 2463.93399 5381.39065 2440.08953 5590.59705 2410.91707 5840.81541 2395.80114 6020.83249 2377.24766 6289.29079 2357.28465 6584.28097 2327.08531 6985.70647 2317.80101 7099.49859 2310.96111 7357.40039 2308.96111 7472.96843 2310.96111 7676.23721 2311.96111 7824.0136 2317.80101 8307.32117 2327.08531 8729.18407 2349.71862 9099.26697 2377.24766 9551.39609 2410.91707 9946.66483 2456.18348 10363.4014 2508.77187 10746.9402 2559.5266 11098.3287 2599.39752 11367.0217 2652.25235 11656.2924 2720.44608 12025.0957 2828.72704 12613.0516 2896.57732 12977.0134 2959.274 13283.5754 3025.60078 13595.6481 3081.93872 13582.3619 3162.6606 13562.6792 3213.15252 13552.0313 3255.45982 13542.1733 3312.48966 13534.0052 3380.03776 13528.173 3449.25706 13519.8609 3528.97367 13514.2457 3604.72817 13513.1434 3705.52993 13514.2457 3794.94968 13519.8609 3883.83813 13530.0338 3964.00481 13542.1733 4053.75848 13559.5514 4125.65399 13575.8011 4154.5031 13584.4995 4177.79996 13482.1947 4253.26242 13106.5093 4300.08403 12898.0102 4351.30156 12637.3056 4432.72634 12256.289 4508.86294 11874.4121 4572.27125 11528.3309 4672.83073 10975.9932 4704.78206 10795.1113 4770.12046 10382.2779 4815.14994 10010.0812 4837.32421 9785.62869 4883.06628 9293.53049 4907.26771 8954.72886 4922.43489 8701.68302 4930.64062 8431.07132 4931.64062 8175.20945 4930.64062 7701.96559 4926.64062 7310.07236 4917.43489 6803.38358 4902.26771 6414.27152 4884.06628 6048.82139 4867.39947 5777.37996 4833.32421 5396.38159 4804.96159 5080.71436 4762.10133 4779.32799 4711.92564 4448.51838 4659.63025 4103.61486 4598.44099 3781.56545 4550.34229 3490.26667 4499.79758 3218.1521 4440.26866 2923.3451 4377.54974 2593.91194 4327.01655 2342.54763 4278.4141 2118.19947 4259.74591 2030.27099 4136.1726 2055.46598 4014.88355 2075.76772 3908.64913 2086.47117 3794.94968 2090.37595 3696.23912 2091.37595 3575.72189 2086.47117 3449.25706 2073.07602 3344.96172 2055.46598 3255.45982 2034.86181 3169.00485 2011.17646"></polygon>
    </g>
</svg>