<?xml version="1.0" encoding="UTF-8"?>
<svg width="12485px" height="15583px" viewBox="0 0 12485 15583" version="1.1" xmlns="http://www.w3.org/2000/svg" xmlns:xlink="http://www.w3.org/1999/xlink">
    <!-- Generator: Sketch 54.1 (76490) - https://sketchapp.com -->
    <title>Artboard</title>
    <desc>Created with Sketch.</desc>
    <g stroke="none" stroke-width="1" fill="none" fill-rule="evenodd">
        <polygon fill="#000000" points="5712.80784 2005.87862 5610.91366 2497.77774 5484.43926 3070.72295 5394.05168 3501.76028 5330.61054 3838.70409 5254.39914 4238.79245 5192.17314 4612.12476 5134.18595 4994.37384 5087.79907 5358.17783 5049.14639 5689.019 5020.86097 5962.66964 4994.55896 6291.73784 4969.50393 6632.78718 4956.55042 6849.97035 4946.79756 7230.26623 4939.01931 7418.28379 4934.01931 7628.81579 4931.64062 7735.29928 4934.01931 8165.23486 4940.01931 8473.01359 4946.79756 8708.20624 4964.54194 9051.03704 4980.52614 9354.81683 5002.88622 9643.02978 5025.57176 9895.68848 5056.64565 10227.6478 5096.5847 10566.7992 5147.62877 10947.7854 5181.60365 11167.7598 5215.05241 11378.5262 5264.95163 11680.8276 5330.61054 12058.8516 5385.42479 12342.6022 5453.37204 12668.6266 5552.36027 13119.7799 5654.11901 13563.6737 5712.80784 13552.0339 5804.30198 13533.9217 5870.45602 13521.9393 5952.57248 13510.8873 6025.85134 13504.3333 6096.45503 13499.9922 6171.11319 13499.9922 6260.30975 13502.3333 6363.21496 13507.3727 6468.71809 13517.6599 6563.39075 13529.0579 6658.31888 13547.7829 6751.11999 13571.8419 6792.9953 13384.0379 6873.89079 13019.3319 6964.54007 12580.3677 7047.26207 12180.9806 7139.05877 11707.3546 7216.07245 11307.6277 7250.51987 11105.8973 7310.10968 10719.7704 7360.99547 10372.7003 7394.8133 10091.2115 7422.16319 9842.26146 7456.98715 9520.96774 7485.6146 9166.77521 7498.63837 8931.83227 7518.70266 8630.48087 7525.77106 8328.3433 7532.42728 8027.09238 7542.91732 7774.55906 7543.69001 7712.37928 7543.91732 7505.41431 7538.63413 7271.17131 7535.42728 7067.50642 7527.77106 6823.82553 7515.70266 6562.73616 7497.63837 6286.14846 7472.25218 5933.07444 7438.47256 5567.18836 7406.24823 5193.84061 7376.35258 4949.07557 7338.28663 4689.52574 7304.79692 4462.64408 7267.08289 4230.15216 7230.60951 3996.14701 7183.58692 3728.28812 7134.55179 3449.31781 7087.9894 3202.32954 7026.72523 2887.45003 6955.605 2527.07198 6881.56544 2164.92918 6850.3623 2014.82558 6787.44072 2029.63294 6709.76033 2047.16806 6640.29247 2058.49962 6570.89375 2068.43213 6478.8864 2078.45869 6379.21028 2082.77427 6245.57396 2082.77427 6142.07086 2078.45869 6049.47696 2072.98873 5938.45057 2058.49962 5850.05036 2039.97778 5762.80099 2018.82558"></polygon>
    </g>
</svg>