<?xml version="1.0" encoding="UTF-8"?>
<svg width="12485px" height="15583px" viewBox="0 0 12485 15583" version="1.1" xmlns="http://www.w3.org/2000/svg" xmlns:xlink="http://www.w3.org/1999/xlink">
    <!-- Generator: Sketch 54.1 (76490) - https://sketchapp.com -->
    <title>v</title>
    <desc>Created with Sketch.</desc>
    <g stroke="none" stroke-width="1" fill="none" fill-rule="evenodd">
        <polygon fill="#000000" points="8323.21658 1987.48813 8269.42599 2224.45061 8187.03312 2611.19945 8084.90668 3065.74043 8025.65282 3326.83101 7933.86987 3818.40324 7839.53366 4353.83525 7785.35695 4687.03188 7744.02758 4961.38211 7704.68794 5248.22655 7661.87946 5596.84547 7632.53414 5867.91234 7609.81654 6123.52725 7578.76622 6548.37606 7569.67842 6733.12726 7558.59453 7009.37436 7552.59453 7295.88804 7546.85657 7530.77306 7543.91732 7711.34954 7543.91732 7915.35551 7546.85657 8168.92062 7549.75715 8389.06681 7552.59453 8625.32797 7562.67842 8877.36136 7586.57243 9192.58796 7620.49926 9641.23697 7653.03373 9945.39813 7691.4015 10279.6594 7732.13265 10579.0748 7794.28243 10997.1566 7849.36413 11364.9942 7907.21633 11678.8081 7957.75538 11956.5406 8035.64597 12338.9058 8112.73481 12707.51 8202.20498 13098.9886 8269.42599 13383.5075 8310.60082 13555.9302 8369.31902 13541.1566 8432.15052 13526.4428 8502.00496 13512.7663 8574.04936 13501.6651 8640.70966 13492.7793 8696.2717 13488.522 8756.91822 13485.2038 8826.58009 13485.2038 8883.8187 13485.2038 8964.94721 13488.522 9040.18032 13492.7793 9125.94402 13501.6651 9218.73654 13512.7663 9293.32544 13526.4428 9358.78776 13541.1566 9407.20404 13553.5673 9436.83651 13405.2818 9517.98508 12998.4046 9641.71869 12359.7074 9746.47687 11837.9008 9822.56562 11435.4786 9873.80045 11138.0697 9927.72685 10803.5242 9984.7183 10441.1434 10015.1259 10171.5057 10050.0915 9864.09312 10087.494 9478.25752 10107.1079 9154.88757 10135.8798 8677.25288 10148.4539 8194.61647 10148.4539 7690.2878 10146.4539 7248.19497 10142.4539 6866.45315 10120.0424 6512.57815 10098.1079 6170.59023 10068.2851 5784.77339 10013.1259 5260.23034 9979.7183 4961.38211 9919.05319 4484.62234 9875.80045 4175.38732 9814.73775 3818.40324 9752.92434 3462.57942 9693.31267 3132.12427 9590.90326 2600.40824 9500.12768 2149.93649 9468.67539 1996.91626 9355.70904 2024.32461 9245.90332 2044.94355 9137.77843 2060.52562 9040.18032 2067.86706 8874.1896 2070.81333 8750.82979 2065.23491 8640.70966 2054.75123 8536.74118 2038.67023 8448.73509 2020.07537"></polygon>
    </g>
</svg>