<?xml version="1.0" encoding="UTF-8"?>
<svg width="12484px" height="15559px" viewBox="0 0 12484 15559" version="1.1" xmlns="http://www.w3.org/2000/svg" xmlns:xlink="http://www.w3.org/1999/xlink">
    <!-- Generator: Sketch 54.1 (76490) - https://sketchapp.com -->
    <title>v</title>
    <desc>Created with Sketch.</desc>
    <g stroke="none" stroke-width="1" fill="none" fill-rule="evenodd">
        <polygon fill="#000000" points="1365.18178 2018.84806 1292.51381 2322.80279 1235.13132 2583.40274 1187.50381 2808.7591 1102.76573 3244.78018 1006.53639 3744.45138 928.30736 4150.50081 863.571906 4521.82946 802.242149 4829.82497 764.311227 5077.8341 734.104219 5311.54016 699.451668 5628.9278 658.861265 6045.09801 631.788075 6368.195 613.450116 6604.52889 601.110527 6824.03122 592.643589 7161.38602 586.465668 7411.80144 586.465668 7620.70376 586.465668 7949.31285 597.110527 8229.86747 601.110527 8732.01685 619.143735 9068.01016 651.936548 9475.32301 683.886268 9890.3944 715.25653 10213.5944 750.020336 10502.124 802.242149 10837.4776 853.300678 11166.9564 917.429608 11510.3072 965.073084 11785.1436 1035.05307 12128.7627 1114.28688 12547.6564 1150.92227 12742.2298 1224.45123 13048.4558 1283.46602 13325.1044 1344.32202 13576.605 1427.50438 13553.0655 1516.89999 13537.795 1606.16509 13523.9767 1708.22054 13513.2407 1798.56039 13509.0881 1892.84999 13503.1539 2018.55635 13509.0881 2120.26849 13513.2407 2225.73777 13523.9767 2323.73373 13542.8817 2386.21832 13559.1379 2437.24544 13576.605 2489.55183 13341.9179 2531.33489 13146.7911 2571.85096 12936.0525 2622.50244 12671.2006 2681.01626 12396.2696 2734.65673 12128.7627 2790.62536 11838.3552 2841.84509 11560.6732 2900.69346 11214.0573 2941.83209 10962.3568 2982.65718 10675.8949 3013.20406 10437.4378 3043.46354 10168.5212 3059.88634 10030.3422 3071.85629 9890.3944 3083.9717 9755.61583 3100.12184 9557.52206 3120.53642 9318.71724 3127.19822 9149.12236 3145.34569 8825.80108 3158.96118 8551.90691 3164.60243 8339.22997 3169.86087 7925.03195 3169.86087 7484.16298 3169.86087 7216.00498 3164.60243 6909.61017 3153.61476 6637.00164 3137.4068 6374.04527 3120.53642 6091.42812 3100.12184 5860.17459 3083.9717 5628.9278 3052.11376 5311.54016 3026.22336 5069.20733 2982.65718 4732.47495 2927.11699 4369.98725 2874.08279 4044.92838 2819.83512 3719.32321 2742.75859 3254.98967 2681.01626 2945.02612 2622.50244 2653.39405 2556.04743 2370.27972 2510.45263 2152.50801 2482.04399 2036.7545 2419.68663 2053.73266 2346.70316 2068.23889 2199.83497 2084.47264 2120.26849 2092.49888 2012.15546 2097.59875 1892.84999 2097.59875 1810.86896 2097.59875 1747.84434 2093.79219 1668.39783 2084.47264 1566.44513 2068.68297 1464.3875 2043.813"></polygon>
    </g>
</svg>