<?xml version="1.0" encoding="UTF-8"?>
<svg width="12484px" height="15559px" viewBox="0 0 12484 15559" version="1.1" xmlns="http://www.w3.org/2000/svg" xmlns:xlink="http://www.w3.org/1999/xlink">
    <!-- Generator: Sketch 54.1 (76490) - https://sketchapp.com -->
    <title>v</title>
    <desc>Created with Sketch.</desc>
    <g stroke="none" stroke-width="1" fill="none" fill-rule="evenodd">
        <polygon fill="#000000" points="3957.30014 2027.0824 3868.16536 2466.46139 3803.53317 2755.56198 3695.91321 3255.24202 3633.62908 3559.32297 3561.55521 3937.33031 3482.56572 4360.20096 3396.37595 4901.9797 3342.21266 5272.9537 3299.22362 5649.50785 3255.23187 6014.65392 3222.83606 6371.75325 3203.83641 6654.94146 3195.26654 6792.13255 3185.7622 7037.42797 3177.63603 7300.35452 3171.63603 7676.29288 3169.86087 8077.50952 3175.63603 8435.2578 3185.7622 8689.8638 3191.26654 8852.4896 3203.83641 9070.46782 3239.29718 9540.72765 3272.43675 9906.02265 3299.22362 10177.2529 3342.21266 10544.8398 3413.34851 11021.7331 3482.56572 11476.7192 3563.5805 11927.0093 3662.35982 12464.132 3734.07035 12807.2352 3836.51534 13264.9513 3901.70166 13553.496 3982.97223 13533.1072 4108.32445 13510.2488 4215.90065 13493.4694 4354.26861 13481.6235 4489.34498 13478.6235 4619.33885 13483.6235 4739.23871 13497.4694 4848.55515 13517.5747 4939.37633 13538.1072 5010.75905 13555.496 5137.08212 12954.6129 5286.03688 12188.9454 5421.81706 11490.0059 5541.83023 10857.5563 5588.80756 10580.6982 5627.92031 10284.3192 5658.29514 10017.3915 5680.8501 9739.78962 5712.91324 9351.3005 5746.35938 8852.4896 5760.95049 8629.73579 5770.79831 8374.22665 5779.23588 8061.20238 5785.23588 7629.79728 5785.23588 7344.25166 5785.23588 6981.2395 5760.95049 6583.02831 5729.16292 6121.17855 5680.8501 5603.25996 5639.00206 5142.19666 5618.21729 4932.982 5588.80756 4703.43564 5541.83023 4384.15232 5503.49843 4125.82088 5455.23299 3855.60832 5377.60975 3441.84132 5306.19139 3090.93218 5230.69541 2715.17997 5162.85048 2367.77394 5097.41434 2052.28267 4980.87409 2074.20293 4863.49621 2093.21413 4756.53721 2106.1244 4634.42034 2113.38197 4513.53244 2113.38197 4391.76281 2109.38197 4242.9593 2093.21413 4142.81256 2074.20293 4049.22123 2052.28267"></polygon>
    </g>
</svg>