<?xml version="1.0" encoding="UTF-8"?>
<svg width="12484px" height="15559px" viewBox="0 0 12484 15559" version="1.1" xmlns="http://www.w3.org/2000/svg" xmlns:xlink="http://www.w3.org/1999/xlink">
    <!-- Generator: Sketch 54.1 (76490) - https://sketchapp.com -->
    <title>v</title>
    <desc>Created with Sketch.</desc>
    <g stroke="none" stroke-width="1" fill="none" fill-rule="evenodd">
        <polygon fill="#000000" points="6579.17874 2020.11881 6470.42997 2501.41694 6397.33659 2826.28562 6337.18572 3108.50708 6282.9251 3361.81696 6230.74576 3629.09101 6172.76706 3929.79163 6117.09941 4219.34728 6074.45343 4448.87531 6019.03002 4774.71594 5977.20467 5026.46012 5950.79269 5194.68799 5921.49128 5437.51171 5895.32574 5652.92335 5866.9088 5951.33076 5844.06886 6241.21367 5828.79319 6469.79196 5814.33546 6732.51525 5803.96975 6945.51876 5796.26182 7147.38102 5791.26182 7296.09924 5785.23588 7482.34907 5785.23588 7791.28919 5779.23588 8061.20238 5785.23588 8407.76419 5791.26182 8649.49088 5814.33546 9196.83972 5844.06886 9642.00089 5866.9088 9907.26688 5895.32574 10250.5936 5929.54723 10576.3204 5962.56754 10835.6429 6009.32828 11149.1744 6059.29425 11492.0576 6117.09941 11829.5992 6172.76706 12143.6765 6257.95004 12596.5246 6321.3404 12943.5378 6379.48247 13249.7547 6446.9611 13546.5203 6555.49076 13530.9035 6675.91024 13521.117 6830.93348 13513.6522 6992.38171 13506.6022 7102.78808 13504.6022 7102.78808 12262.7429 7102.78808 11381.2928 7100.78808 10263.1616 7098.78808 9548.6625 7098.78808 8737.12488 7093.44563 7885.76902 7092.44563 7127.24595 7092.44563 6674.017 7092.44563 6087.82305 7089.44563 5509.07967 7089.44563 4796.41766 7088.44563 4014.4992 7088.44563 3202.84454 7084.44563 2331.84383 7082.44563 2076.35269 7030.08982 2076.35269 6918.90427 2070.48916 6800.44745 2059.567 6709.87402 2047.70377 6640.80152 2035.47495"></polygon>
    </g>
</svg>